<svg width="265" height="208" viewBox="0 0 265 208" fill="none" xmlns="http://www.w3.org/2000/svg">
<path d="M233.403 50.3733L41.8117 51.9817C40.0362 51.9966 38.6089 53.4481 38.6238 55.2236L39.5538 166.005C39.5687 167.78 41.0202 169.207 42.7957 169.193L234.387 167.584C236.162 167.569 237.589 166.118 237.575 164.342L236.644 53.5612C236.63 51.7857 235.178 50.3584 233.403 50.3733Z" fill="#091E42" fill-opacity="0.0784314"/>
<path d="M222.186 33.692L31.3205 50.4223C29.5517 50.5774 28.2435 52.137 28.3985 53.9058L38.0723 164.268C38.2273 166.036 39.7869 167.345 41.5557 167.19L232.422 150.459C234.19 150.304 235.499 148.745 235.344 146.976L225.67 36.614C225.515 34.8452 223.955 33.5369 222.186 33.692Z" fill="#E4F0F6" stroke="#8BBDD9" stroke-linecap="round" stroke-linejoin="round" stroke-dasharray="2 2"/>
<path d="M153.555 58.1335L101.768 62.673C100.57 62.7779 99.6847 63.8339 99.7897 65.0316L104.076 113.937C104.181 115.134 105.237 116.02 106.435 115.915L158.222 111.376C159.42 111.271 160.306 110.215 160.201 109.017L155.914 60.112C155.809 58.9144 154.753 58.0286 153.555 58.1335Z" fill="#BCD9EA"/>
<mask id="mask0" mask-type="alpha" maskUnits="userSpaceOnUse" x="104" y="71" width="51" height="17">
<path d="M151.509 71.1831L106.342 75.1423C105.144 75.2472 104.258 76.3032 104.363 77.5009L105.053 85.368C105.158 86.5657 106.214 87.4515 107.411 87.3465L152.579 83.3874C153.776 83.2824 154.662 82.2264 154.557 81.0287L153.868 73.1616C153.763 71.9639 152.707 71.0781 151.509 71.1831Z" fill="white"/>
</mask>
<g mask="url(#mask0)">
<path d="M151.509 71.1831L106.342 75.1423C105.144 75.2472 104.258 76.3032 104.363 77.5009L105.053 85.368C105.158 86.5657 106.214 87.4515 107.411 87.3465L152.579 83.3874C153.776 83.2824 154.662 82.2264 154.557 81.0287L153.868 73.1616C153.763 71.9639 152.707 71.0781 151.509 71.1831Z" fill="#E4F0F6"/>
<path fill-rule="evenodd" clip-rule="evenodd" d="M107.232 80.45C107.179 79.8497 107.622 79.3204 108.215 79.2685L116.132 78.5745C116.727 78.5223 117.252 78.9623 117.305 79.567L117.438 81.0826C117.491 81.6829 117.048 82.2122 116.455 82.2641L108.538 82.9582C107.943 83.0103 107.418 82.5703 107.365 81.9656L107.232 80.45Z" fill="#BCD9EA"/>
</g>
<mask id="mask1" mask-type="alpha" maskUnits="userSpaceOnUse" x="105" y="86" width="52" height="27">
<path d="M152.827 86.225L107.66 90.1841C106.462 90.2891 105.577 91.3451 105.682 92.5427L107.242 110.344C107.347 111.541 108.403 112.427 109.6 112.322L154.768 108.363C155.966 108.258 156.851 107.202 156.746 106.004L155.186 88.2034C155.081 87.0058 154.025 86.12 152.827 86.225Z" fill="white"/>
</mask>
<g mask="url(#mask1)">
<path d="M152.827 86.225L107.66 90.1841C106.462 90.2891 105.577 91.3451 105.682 92.5427L107.242 110.344C107.347 111.541 108.403 112.427 109.6 112.322L154.768 108.363C155.966 108.258 156.851 107.202 156.746 106.004L155.186 88.2034C155.081 87.0058 154.025 86.12 152.827 86.225Z" fill="#E4F0F6"/>
<path d="M144.787 91.2199L109.539 94.3096C108.94 94.3621 108.498 94.89 108.55 95.4889L108.683 97.01C108.736 97.6088 109.264 98.0517 109.863 97.9992L145.11 94.9096C145.709 94.8571 146.152 94.3291 146.1 93.7303L145.966 92.2091C145.914 91.6103 145.386 91.1674 144.787 91.2199Z" fill="#BCD9EA"/>
<path d="M121.758 99.8161L110.111 100.837C109.513 100.89 109.07 101.418 109.122 102.016L109.256 103.537C109.308 104.136 109.836 104.579 110.435 104.527L122.082 103.506C122.68 103.453 123.123 102.925 123.071 102.327L122.937 100.805C122.885 100.207 122.357 99.7636 121.758 99.8161Z" fill="#BCD9EA"/>
</g>
<path fill-rule="evenodd" clip-rule="evenodd" d="M103.859 68.4451C103.807 67.8457 104.254 67.3169 104.847 67.2649L125.131 65.4869C125.729 65.4345 126.257 65.8803 126.309 66.4773L126.492 68.564C126.544 69.1634 126.097 69.6922 125.504 69.7442L105.22 71.5222C104.622 71.5746 104.094 71.1287 104.042 70.5318L103.859 68.4451Z" fill="#E4F0F6"/>
<path d="M215.148 52.7347L163.361 57.2741C162.163 57.3791 161.277 58.4351 161.382 59.6327L168.167 137.036C168.272 138.233 169.328 139.119 170.526 139.014L222.313 134.475C223.511 134.37 224.397 133.314 224.292 132.116L217.507 54.7131C217.402 53.5155 216.346 52.6297 215.148 52.7347Z" fill="#BCD9EA"/>
<mask id="mask2" mask-type="alpha" maskUnits="userSpaceOnUse" x="165" y="66" width="54" height="39">
<path d="M213.127 66.0677L167.959 70.0269C166.762 70.1319 165.876 71.1879 165.981 72.3855L168.611 102.391C168.716 103.588 169.772 104.474 170.969 104.369L216.137 100.41C217.334 100.305 218.22 99.249 218.115 98.0514L215.485 68.0462C215.38 66.8486 214.324 65.9628 213.127 66.0677Z" fill="white"/>
</mask>
<g mask="url(#mask2)">
<path d="M213.127 66.0677L167.959 70.0269C166.762 70.1319 165.876 71.1879 165.981 72.3855L168.611 102.391C168.716 103.588 169.772 104.474 170.969 104.369L216.137 100.41C217.334 100.305 218.22 99.249 218.115 98.0514L215.485 68.0462C215.38 66.8486 214.324 65.9628 213.127 66.0677Z" fill="#E4F0F6"/>
<path d="M219.425 64.4065L165.712 69.1147L168.014 95.3801L221.727 90.6719L219.425 64.4065Z" fill="#8BBDD9"/>
<path fill-rule="evenodd" clip-rule="evenodd" d="M170.915 98.8914C170.862 98.291 171.311 97.7612 171.908 97.7089L181.531 96.8654C182.132 96.8127 182.662 97.2523 182.715 97.857L182.848 99.3726C182.9 99.9729 182.451 100.503 181.854 100.555L172.232 101.399C171.63 101.451 171.1 101.012 171.047 100.407L170.915 98.8914Z" fill="#BCD9EA"/>
</g>
<mask id="mask3" mask-type="alpha" maskUnits="userSpaceOnUse" x="169" y="104" width="51" height="16">
<path d="M216.172 104.125L171.005 108.084C169.807 108.189 168.922 109.245 169.027 110.443L169.617 117.175C169.722 118.373 170.778 119.258 171.975 119.153L217.143 115.194C218.34 115.089 219.226 114.033 219.121 112.836L218.531 106.104C218.426 104.906 217.37 104.02 216.172 104.125Z" fill="#E4F0F6"/>
</mask>
<g mask="url(#mask3)">
<path d="M216.172 104.125L171.005 108.084C169.807 108.189 168.922 109.245 169.027 110.443L169.617 117.175C169.722 118.373 170.778 119.258 171.975 119.153L217.143 115.194C218.34 115.089 219.226 114.033 219.121 112.836L218.531 106.104C218.426 104.906 217.37 104.02 216.172 104.125Z" fill="#E4F0F6"/>
</g>
<path d="M189.374 110.192L172.835 111.642C172.236 111.694 171.793 112.222 171.845 112.821L171.979 114.342C172.031 114.941 172.559 115.384 173.158 115.331L189.697 113.882C190.296 113.829 190.739 113.301 190.687 112.702L190.553 111.181C190.501 110.582 189.973 110.139 189.374 110.192Z" fill="#BCD9EA"/>
<mask id="mask4" mask-type="alpha" maskUnits="userSpaceOnUse" x="170" y="118" width="51" height="16">
<path d="M217.441 118.6L172.274 122.559C171.076 122.664 170.19 123.72 170.295 124.917L170.886 131.649C170.99 132.847 172.046 133.733 173.244 133.628L218.411 129.669C219.609 129.564 220.495 128.508 220.39 127.31L219.8 120.578C219.695 119.38 218.639 118.495 217.441 118.6Z" fill="#E4F0F6"/>
</mask>
<g mask="url(#mask4)">
<path d="M217.441 118.6L172.274 122.559C171.076 122.664 170.19 123.72 170.295 124.917L170.886 131.649C170.99 132.847 172.046 133.733 173.244 133.628L218.411 129.669C219.609 129.564 220.495 128.508 220.39 127.31L219.8 120.578C219.695 119.38 218.639 118.495 217.441 118.6Z" fill="#E4F0F6"/>
</g>
<path d="M184.886 125.171L174.103 126.116C173.504 126.168 173.061 126.696 173.114 127.295L173.247 128.816C173.3 129.415 173.828 129.858 174.427 129.806L185.21 128.86C185.809 128.808 186.252 128.28 186.199 127.681L186.066 126.16C186.013 125.561 185.485 125.118 184.886 125.171Z" fill="#BCD9EA"/>
<path fill-rule="evenodd" clip-rule="evenodd" d="M165.452 63.0466C165.4 62.4472 165.845 61.9185 166.436 61.8667L178.956 60.7693C179.552 60.717 180.078 61.163 180.131 61.76L180.314 63.8466C180.366 64.446 179.92 64.9748 179.329 65.0266L166.809 66.124C166.213 66.1762 165.687 65.7302 165.635 65.1333L165.452 63.0466Z" fill="#E4F0F6"/>
<path d="M91.9626 63.5325L40.1754 68.0719C38.9777 68.1769 38.0919 69.2329 38.1969 70.4305L45.131 149.536C45.2359 150.734 46.2919 151.62 47.4896 151.515L99.2768 146.976C100.474 146.871 101.36 145.815 101.255 144.617L94.3212 65.5109C94.2162 64.3133 93.1602 63.4275 91.9626 63.5325Z" fill="#BCD9EA"/>
<path d="M89.941 76.8654L44.7736 80.8246C43.576 80.9295 42.6902 81.9855 42.7952 83.1832L43.4599 90.7666C43.5649 91.9642 44.6209 92.85 45.8185 92.745L90.9859 88.7859C92.1836 88.6809 93.0694 87.6249 92.9644 86.4272L92.2997 78.8439C92.1947 77.6462 91.1387 76.7604 89.941 76.8654Z" fill="#E4F0F6"/>
<path d="M69.4995 82.6617L46.628 84.6665C46.0291 84.719 45.5863 85.247 45.6387 85.8458L45.7721 87.3669C45.8246 87.9658 46.3526 88.4087 46.9514 88.3562L69.8229 86.3514C70.4217 86.2989 70.8646 85.7709 70.8121 85.172L70.6788 83.6509C70.6263 83.0521 70.0983 82.6092 69.4995 82.6617Z" fill="#BCD9EA"/>
<path d="M91.3092 92.4759L46.1418 96.435C44.9442 96.54 44.0584 97.596 44.1634 98.7937L44.8281 106.377C44.9331 107.575 45.989 108.46 47.1867 108.355L92.3541 104.396C93.5518 104.291 94.4376 103.235 94.3326 102.038L93.6679 94.4543C93.5629 93.2567 92.5069 92.3709 91.3092 92.4759Z" fill="#E4F0F6"/>
<path d="M64.8235 98.8016L47.9961 100.277C47.3973 100.329 46.9544 100.857 47.0069 101.456L47.1402 102.977C47.1927 103.576 47.7207 104.019 48.3196 103.966L65.1469 102.491C65.7458 102.439 66.1887 101.911 66.1362 101.312L66.0028 99.7908C65.9503 99.192 65.4223 98.7491 64.8235 98.8016Z" fill="#BCD9EA"/>
<path d="M61.8751 137.956L51.0918 138.901C50.493 138.953 50.0501 139.481 50.1026 140.08L50.2359 141.601C50.2884 142.2 50.8164 142.643 51.4153 142.591L62.1985 141.645C62.7973 141.593 63.2402 141.065 63.1877 140.466L63.0544 138.945C63.0019 138.346 62.4739 137.903 61.8751 137.956Z" fill="#E4E4E4"/>
<mask id="mask5" mask-type="alpha" maskUnits="userSpaceOnUse" x="45" y="107" width="53" height="40">
<path d="M92.5825 107.796L47.4151 111.756C46.2175 111.861 45.3317 112.917 45.4367 114.114L48.0668 144.119C48.1717 145.317 49.2277 146.203 50.4254 146.098L95.5928 142.139C96.7904 142.034 97.6762 140.978 97.5712 139.78L94.9411 109.775C94.8362 108.577 93.7802 107.691 92.5825 107.796Z" fill="white"/>
</mask>
<g mask="url(#mask5)">
<path d="M92.5825 107.796L47.4151 111.756C46.2175 111.861 45.3317 112.917 45.4367 114.114L48.0668 144.119C48.1717 145.317 49.2277 146.203 50.4254 146.098L95.5928 142.139C96.7904 142.034 97.6762 140.978 97.5712 139.78L94.9411 109.775C94.8362 108.577 93.7802 107.691 92.5825 107.796Z" fill="#E4F0F6"/>
<path d="M98.8807 106.134L45.168 110.842L47.4703 137.108L101.183 132.4L98.8807 106.134Z" fill="#8BBDD9"/>
<path d="M60.9912 138.594L51.3593 139.438C50.7605 139.49 50.3176 140.018 50.3701 140.617L50.5034 142.138C50.5559 142.737 51.0839 143.18 51.6827 143.128L61.3147 142.283C61.9135 142.231 62.3564 141.703 62.3039 141.104L62.1706 139.583C62.1181 138.984 61.5901 138.541 60.9912 138.594Z" fill="#BCD9EA"/>
</g>
<path d="M54.9023 71.6428L43.2557 72.6637C42.6568 72.7162 42.2139 73.2442 42.2664 73.843L42.4495 75.9318C42.502 76.5306 43.03 76.9735 43.6288 76.921L55.2755 75.9001C55.8743 75.8476 56.3172 75.3196 56.2647 74.7208L56.0816 72.632C56.0292 72.0332 55.5012 71.5903 54.9023 71.6428Z" fill="#E4F0F6"/>
<path opacity="0.33" d="M50.294 56.5281L38.6474 57.5489C38.0486 57.6014 37.6057 58.1294 37.6582 58.7283L37.8412 60.817C37.8937 61.4158 38.4217 61.8587 39.0206 61.8063L50.6672 60.7854C51.266 60.7329 51.7089 60.2049 51.6565 59.606L51.4734 57.5173C51.4209 56.9185 50.8929 56.4756 50.294 56.5281Z" fill="#0079BF"/>
<path fill-rule="evenodd" clip-rule="evenodd" d="M122.693 46.7984C121.942 46.8642 121.386 47.5268 121.452 48.2775L122.167 56.4366C122.233 57.1877 122.895 57.7431 123.646 57.6773L131.805 56.9621C132.556 56.8963 133.112 56.2337 133.046 55.483L132.331 47.3239C132.265 46.5729 131.602 46.0174 130.852 46.0832L122.693 46.7984ZM128.256 47.7359C127.895 47.7675 127.629 48.0853 127.66 48.4461L127.966 51.9268C127.997 52.2874 128.315 52.5542 128.675 52.5226L130.688 52.3462C131.049 52.3146 131.315 51.9967 131.284 51.6359L130.979 48.1553C130.947 47.7946 130.629 47.5279 130.269 47.5594L128.256 47.7359ZM123.523 48.1507C123.163 48.1823 122.896 48.4999 122.928 48.8609L123.472 55.0613C123.503 55.422 123.821 55.6887 124.181 55.6572L126.194 55.4807C126.555 55.4491 126.821 55.1316 126.79 54.7705L126.246 48.5701C126.215 48.2094 125.897 47.9427 125.536 47.9743L123.523 48.1507Z" fill="#8BBDD9"/>
</svg>
