<svg xmlns="http://www.w3.org/2000/svg" xmlns:xlink="http://www.w3.org/1999/xlink" viewBox="0 0 48.03 48.03"><defs><style>.b8fbafc4-2c8e-431e-855b-447299bcf812{fill:#62ca64;}.a61e6985-9a47-4160-9e9a-6fb894e2dd0d{fill:url(#fb61c426-f4f1-4f90-8049-419c1f0b3493);}.e5ed78c2-4e41-47c7-8ca2-cc04dfa54e01{fill:url(#b1758c4a-d97c-41f5-b897-e8c44d51505f);}.e2cc6d14-0e54-4f94-b207-2aaec638e8a3{fill:url(#f813cdb8-66dd-43a0-8175-b0bbf096c354);}.b59d4193-09ba-4444-93e3-f79a5a825862{fill:url(#e2596a99-6d62-418f-9d2f-8037e554138d);}.b4216f48-6beb-49cf-ac08-f562440d135e{fill:url(#b900fd49-cd3c-4fa7-9ebe-91bb8b2f97ef);}.b4a7f74e-0b92-4918-b1de-d518a495922b{fill:url(#f10fff84-c4be-42d9-bfc0-f542c5eaaafd);}.b0c874f7-d6fb-435b-9bff-cd3727a40aa7{fill:url(#bc679cb2-a3a6-49a5-af8d-9a28cd142cd6);}.e1a636bc-b4a7-4952-8a8c-da23f77cd974{fill:url(#ad2a6fd5-917e-48d9-9cda-02e3d1e68652);}.add2c70b-bdcb-4835-b91d-023a4cb54c79{fill:url(#a7e4a8fa-b0a2-46f4-826c-9bf0a13d91a9);}.aad252c4-153b-4de6-b3e4-fc33be31be2f{fill:url(#b0b0c2b2-1d52-4ac0-83e5-e0983f892a37);}.f70be0d0-bd84-47e7-a840-4120ab308483{fill:url(#b06b54f2-753b-4910-80d6-a03c441b91d7);}.b1c7b7f1-9a99-47fb-9663-dec7d0da8e22{fill:url(#e5cca198-a3da-4200-98c5-eec9388e3313);}</style><linearGradient id="fb61c426-f4f1-4f90-8049-419c1f0b3493" x1="24.09" y1="28.18" x2="23.99" y2="0.3" gradientUnits="userSpaceOnUse"><stop offset="0" stop-color="#d0edd0" stop-opacity="0"/><stop offset="1" stop-color="#e8fcf2" stop-opacity="0.6"/></linearGradient><linearGradient id="b1758c4a-d97c-41f5-b897-e8c44d51505f" x1="24.36" y1="20.48" x2="23.98" y2="6.68" gradientUnits="userSpaceOnUse"><stop offset="0" stop-color="#d0edd0"/><stop offset="1" stop-color="#e8fcf2"/></linearGradient><linearGradient id="f813cdb8-66dd-43a0-8175-b0bbf096c354" x1="24.73" y1="20.65" x2="23.83" y2="4.43" xlink:href="#b1758c4a-d97c-41f5-b897-e8c44d51505f"/><linearGradient id="e2596a99-6d62-418f-9d2f-8037e554138d" x1="9.56" y1="40.93" x2="9.08" y2="4.41" xlink:href="#fb61c426-f4f1-4f90-8049-419c1f0b3493"/><linearGradient id="b900fd49-cd3c-4fa7-9ebe-91bb8b2f97ef" x1="9.63" y1="28.09" x2="9.34" y2="16.3" xlink:href="#b1758c4a-d97c-41f5-b897-e8c44d51505f"/><linearGradient id="f10fff84-c4be-42d9-bfc0-f542c5eaaafd" x1="9.86" y1="38.58" x2="9.48" y2="21.33" xlink:href="#b1758c4a-d97c-41f5-b897-e8c44d51505f"/><linearGradient id="bc679cb2-a3a6-49a5-af8d-9a28cd142cd6" x1="38.65" y1="34.47" x2="38.55" y2="6.59" xlink:href="#fb61c426-f4f1-4f90-8049-419c1f0b3493"/><linearGradient id="ad2a6fd5-917e-48d9-9cda-02e3d1e68652" x1="38.61" y1="25" x2="38.61" y2="23.66" xlink:href="#b1758c4a-d97c-41f5-b897-e8c44d51505f"/><linearGradient id="a7e4a8fa-b0a2-46f4-826c-9bf0a13d91a9" x1="38.9" y1="29.96" x2="38.62" y2="15.11" xlink:href="#b1758c4a-d97c-41f5-b897-e8c44d51505f"/><linearGradient id="b0b0c2b2-1d52-4ac0-83e5-e0983f892a37" x1="24.06" y1="26.81" x2="23.29" y2="51.34" gradientUnits="userSpaceOnUse"><stop offset="0" stop-color="#2e7016"/><stop offset="1" stop-color="#37ae37"/></linearGradient><linearGradient id="b06b54f2-753b-4910-80d6-a03c441b91d7" x1="12.98" y1="35.69" x2="42.88" y2="36.2" gradientUnits="userSpaceOnUse"><stop offset="0" stop-color="#359a2d"/><stop offset="1" stop-color="#62ca64"/></linearGradient><linearGradient id="e5cca198-a3da-4200-98c5-eec9388e3313" x1="17.37" y1="27.49" x2="31.94" y2="26.72" xlink:href="#b1758c4a-d97c-41f5-b897-e8c44d51505f"/></defs><title>productivity</title><g id="adb740f5-c4cb-4202-9a63-37f912bafc37" data-name="Layer 2"><g id="b34772b3-fac7-48f1-b555-31d5b2515b1a" data-name="icons"><g id="b26b397c-c9eb-46d6-8003-e20e9f69723a" data-name="productivity"><rect class="b8fbafc4-2c8e-431e-855b-447299bcf812" width="48.03" height="48.03"/><path class="a61e6985-9a47-4160-9e9a-6fb894e2dd0d" d="M20.28,5h7.56a.88.88,0,0,1,.88.88V35.64a0,0,0,0,1,0,0H19.4a0,0,0,0,1,0,0V5.87A.88.88,0,0,1,20.28,5Z"/><path class="e5ed78c2-4e41-47c7-8ca2-cc04dfa54e01" d="M26.78,14.21H21.3a1.93,1.93,0,0,1-1.92-1.92V5.85A1.93,1.93,0,0,1,21.3,3.93h5.48A1.92,1.92,0,0,1,28.7,5.85v6.44A1.92,1.92,0,0,1,26.78,14.21Zm-5.48-9a.66.66,0,0,0-.65.65v6.44a.66.66,0,0,0,.65.65h5.48a.65.65,0,0,0,.65-.65V5.85a.65.65,0,0,0-.65-.65Z"/><path class="e2cc6d14-0e54-4f94-b207-2aaec638e8a3" d="M23.35,11.24a.59.59,0,0,1-.44-.19L21.22,9.36a.63.63,0,1,1,.89-.89l1.24,1.24L26,7.09a.64.64,0,1,1,.9.9L23.8,11.05A.6.6,0,0,1,23.35,11.24Z"/><path class="b59d4193-09ba-4444-93e3-f79a5a825862" d="M5.64,15H13.2a.88.88,0,0,1,.88.88V45.63a0,0,0,0,1,0,0H4.76a0,0,0,0,1,0,0V15.86A.88.88,0,0,1,5.64,15Z"/><path class="b4216f48-6beb-49cf-ac08-f562440d135e" d="M12.14,24H6.67a1.92,1.92,0,0,1-1.92-1.92V15.65a1.92,1.92,0,0,1,1.92-1.92h5.47a1.93,1.93,0,0,1,1.93,1.92v6.44A1.93,1.93,0,0,1,12.14,24ZM6.67,15a.66.66,0,0,0-.66.65v6.44a.66.66,0,0,0,.66.65h5.47a.66.66,0,0,0,.66-.65V15.65a.66.66,0,0,0-.66-.65Z"/><path class="b4a7f74e-0b92-4918-b1de-d518a495922b" d="M8.72,21a.64.64,0,0,1-.45-.19L6.58,19.16a.63.63,0,0,1,0-.9.65.65,0,0,1,.9,0L8.72,19.5l2.61-2.61a.63.63,0,0,1,.9,0,.62.62,0,0,1,0,.89L9.16,20.85A.63.63,0,0,1,8.72,21Z"/><path class="b0c874f7-d6fb-435b-9bff-cd3727a40aa7" d="M34.84,11.24h7.56a.88.88,0,0,1,.88.88V41.88a0,0,0,0,1,0,0H34a0,0,0,0,1,0,0V12.12A.88.88,0,0,1,34.84,11.24Z"/><path class="e1a636bc-b4a7-4952-8a8c-da23f77cd974" d="M41.35,20.65H35.87A1.93,1.93,0,0,1,34,18.73V12.29a1.92,1.92,0,0,1,1.92-1.92h5.48a1.93,1.93,0,0,1,1.92,1.92v6.44A1.93,1.93,0,0,1,41.35,20.65Zm-5.48-9a.65.65,0,0,0-.65.65v6.44a.66.66,0,0,0,.65.65h5.48a.66.66,0,0,0,.65-.65V12.29a.66.66,0,0,0-.65-.65Z"/><path class="add2c70b-bdcb-4835-b91d-023a4cb54c79" d="M37.92,17.67a.63.63,0,0,1-.45-.18L35.78,15.8a.64.64,0,0,1,.9-.9l1.24,1.24,2.62-2.62a.63.63,0,1,1,.89.9l-3.06,3.07A.66.66,0,0,1,37.92,17.67Z"/><path class="aad252c4-153b-4de6-b3e4-fc33be31be2f" d="M28.52,44.09h-9a.63.63,0,0,1-.62-.54L16.52,28.22h15L29.14,43.55A.63.63,0,0,1,28.52,44.09Z"/><path class="f70be0d0-bd84-47e7-a840-4120ab308483" d="M30.16,40H18a.45.45,0,0,1-.45-.39l-.93-7.25a.46.46,0,0,1,.45-.51H31a.44.44,0,0,1,.44.5l-.84,7.25A.45.45,0,0,1,30.16,40Z"/><rect class="b1c7b7f1-9a99-47fb-9663-dec7d0da8e22" x="15.47" y="25.55" width="17.1" height="3.17" rx="0.76"/></g></g></g></svg>